<svg width="33" height="46" viewBox="0 0 33 46" fill="none" xmlns="http://www.w3.org/2000/svg">
<path d="M33 17.0313C33.0017 14.2507 32.3006 11.5147 30.9618 9.07758C29.6231 6.64043 27.6902 4.58114 25.3426 3.09097C22.995 1.6008 20.3088 0.728092 17.5337 0.553897C14.7585 0.379702 11.9843 0.909674 9.46881 2.09459C6.9533 3.2795 4.77803 5.08092 3.14505 7.33153C1.51208 9.58214 0.474361 12.2089 0.128292 14.9679C-0.217776 17.7269 0.139027 20.5287 1.16556 23.1129C2.19209 25.6971 3.85506 27.9799 6 29.7494V44.0313C5.99982 44.2871 6.06506 44.5387 6.18954 44.7622C6.31401 44.9857 6.49357 45.1736 6.71115 45.3082C6.92874 45.4427 7.17711 45.5194 7.43267 45.5308C7.68823 45.5423 7.94248 45.4883 8.17125 45.3738L16.5 41.2188L24.8306 45.3832C25.0395 45.4831 25.2685 45.5338 25.5 45.5313C25.8978 45.5313 26.2794 45.3732 26.5607 45.0919C26.842 44.8106 27 44.4291 27 44.0313V29.7494C28.8767 28.2037 30.388 26.2617 31.4254 24.0628C32.4628 21.8639 33.0005 19.4626 33 17.0313ZM3 17.0313C3 14.3612 3.79176 11.7511 5.27516 9.53108C6.75856 7.31102 8.86697 5.58069 11.3338 4.55891C13.8006 3.53713 16.515 3.26978 19.1337 3.79068C21.7525 4.31158 24.1579 5.59733 26.0459 7.48534C27.934 9.37335 29.2197 11.7788 29.7406 14.3976C30.2615 17.0163 29.9942 19.7307 28.9724 22.1975C27.9506 24.6643 26.2203 26.7727 24.0002 28.2561C21.7801 29.7395 19.1701 30.5313 16.5 30.5313C12.9208 30.5273 9.48933 29.1037 6.95845 26.5728C4.42757 24.042 3.00397 20.6105 3 17.0313ZM24 41.605L17.1694 38.1907C16.961 38.0864 16.7312 38.0321 16.4981 38.0321C16.2651 38.0321 16.0353 38.0864 15.8269 38.1907L9 41.605V31.7257C11.3219 32.9124 13.8924 33.5313 16.5 33.5313C19.1076 33.5313 21.6781 32.9124 24 31.7257V41.605ZM16.5 27.5313C18.5767 27.5313 20.6068 26.9155 22.3335 25.7617C24.0602 24.608 25.406 22.9681 26.2007 21.0495C26.9955 19.1308 27.2034 17.0196 26.7983 14.9828C26.3931 12.946 25.3931 11.0751 23.9246 9.60666C22.4562 8.13821 20.5853 7.13818 18.5485 6.73304C16.5117 6.32789 14.4004 6.53583 12.4818 7.33055C10.5632 8.12527 8.92333 9.47108 7.76957 11.1978C6.61582 12.9245 6 14.9546 6 17.0313C6.00298 19.8151 7.11018 22.4841 9.07867 24.4526C11.0472 26.4211 13.7161 27.5283 16.5 27.5313ZM16.5 9.53128C17.9834 9.53128 19.4334 9.97115 20.6668 10.7953C21.9001 11.6194 22.8614 12.7907 23.4291 14.1612C23.9968 15.5316 24.1453 17.0396 23.8559 18.4945C23.5665 19.9493 22.8522 21.2857 21.8033 22.3346C20.7544 23.3835 19.418 24.0978 17.9632 24.3872C16.5083 24.6766 15.0003 24.528 13.6299 23.9604C12.2594 23.3927 11.0881 22.4314 10.264 21.1981C9.43987 19.9647 9 18.5146 9 17.0313C9 15.0422 9.79018 13.1345 11.1967 11.728C12.6032 10.3215 14.5109 9.53128 16.5 9.53128Z" fill="white"/>
</svg>
