<svg width="37" height="37" viewBox="0 0 37 37" fill="none" xmlns="http://www.w3.org/2000/svg">
<path d="M20.2888 29.0807C20.5699 29.362 20.7278 29.7434 20.7278 30.141C20.7278 30.5387 20.5699 30.9201 20.2888 31.2013L18.4251 33.0763C16.4541 35.0461 13.7814 36.1521 10.9949 36.1513C8.20839 36.1504 5.53637 35.0426 3.56664 33.0716C1.59691 31.1007 0.490821 28.4279 0.4917 25.6415C0.492579 22.855 1.60035 20.1829 3.57133 18.2132L8.09383 13.6907C9.98699 11.796 12.5326 10.6965 15.2099 10.617C17.8871 10.5375 20.4935 11.4842 22.4957 13.2632C22.6434 13.3942 22.7639 13.553 22.8503 13.7306C22.9367 13.9081 22.9872 14.101 22.999 14.298C23.0109 14.4951 22.9838 14.6926 22.9193 14.8793C22.8548 15.0659 22.7542 15.238 22.6232 15.3857C22.4922 15.5334 22.3334 15.6539 22.1558 15.7403C21.9783 15.8267 21.7854 15.8772 21.5884 15.889C21.3913 15.9009 21.1938 15.8738 21.0072 15.8093C20.8205 15.7448 20.6484 15.6442 20.5007 15.5132C19.0707 14.2433 17.2095 13.5676 15.2978 13.6244C13.3862 13.6813 11.5684 14.4662 10.2163 15.8188L5.69383 20.3357C4.28702 21.7425 3.49668 23.6506 3.49668 25.6401C3.49668 27.6296 4.28702 29.5376 5.69383 30.9445C7.10063 32.3513 9.00867 33.1416 10.9982 33.1416C12.9877 33.1416 14.8958 32.3513 16.3026 30.9445L18.1663 29.0807C18.3056 28.9412 18.4711 28.8306 18.6532 28.7551C18.8353 28.6796 19.0305 28.6408 19.2276 28.6408C19.4247 28.6408 19.6199 28.6796 19.802 28.7551C19.9841 28.8306 20.1495 28.9412 20.2888 29.0807ZM33.4288 3.20571C31.4576 1.23887 28.7866 0.134277 26.0019 0.134277C23.2173 0.134277 20.5463 1.23887 18.5751 3.20571L16.7113 5.07133C16.4301 5.35279 16.2722 5.73444 16.2724 6.13231C16.2726 6.53018 16.4308 6.91168 16.7123 7.19289C16.9937 7.47411 17.3754 7.63199 17.7732 7.63181C18.1711 7.63164 18.5526 7.47342 18.8338 7.19196L20.6976 5.32821C22.1044 3.9214 24.0124 3.13106 26.0019 3.13106C27.9915 3.13106 29.8995 3.9214 31.3063 5.32821C32.7131 6.73501 33.5035 8.64305 33.5035 10.6326C33.5035 12.6221 32.7131 14.5301 31.3063 15.937L26.7838 20.4632C25.431 21.815 23.6129 22.599 21.7012 22.6547C19.7895 22.7105 17.9288 22.0339 16.4995 20.7632C16.3517 20.6322 16.1796 20.5316 15.993 20.4671C15.8064 20.4026 15.6089 20.3755 15.4118 20.3874C15.0137 20.4113 14.6415 20.5923 14.377 20.8907C14.246 21.0384 14.1453 21.2105 14.0809 21.3972C14.0164 21.5838 13.9893 21.7813 14.0011 21.9784C14.025 22.3764 14.2061 22.7487 14.5045 23.0132C16.5062 24.7927 19.1123 25.74 21.7895 25.6613C24.4668 25.5825 27.0127 24.4836 28.9063 22.5895L33.4288 18.067C35.3968 16.0955 36.5021 13.4238 36.5021 10.6382C36.5021 7.85263 35.3968 5.18087 33.4288 3.20946V3.20571Z" fill="white"/>
</svg>
