<svg width="33" height="34" viewBox="0 0 33 34" fill="none" xmlns="http://www.w3.org/2000/svg">
<path d="M30 0.768066H3C2.20435 0.768066 1.44129 1.08414 0.87868 1.64675C0.31607 2.20936 0 2.97242 0 3.76807V30.7681C0 31.5637 0.31607 32.3268 0.87868 32.8894C1.44129 33.452 2.20435 33.7681 3 33.7681H30C30.7956 33.7681 31.5587 33.452 32.1213 32.8894C32.6839 32.3268 33 31.5637 33 30.7681V3.76807C33 2.97242 32.6839 2.20936 32.1213 1.64675C31.5587 1.08414 30.7956 0.768066 30 0.768066ZM30 15.7681H18V3.76807H30V15.7681ZM15 3.76807V15.7681H3V3.76807H15ZM3 18.7681H15V30.7681H3V18.7681ZM30 30.7681H18V18.7681H30V30.7681Z" fill="white"/>
</svg>
