<svg width="39" height="33" viewBox="0 0 39 33" fill="none" xmlns="http://www.w3.org/2000/svg">
<path d="M33 0.781738C32.6022 0.781738 32.2206 0.939774 31.9393 1.22108C31.658 1.50238 31.5 1.88391 31.5 2.28174C31.5 2.67956 31.658 3.06109 31.9393 3.3424C32.2206 3.6237 32.6022 3.78174 33 3.78174C33.7957 3.78174 34.5587 4.09781 35.1213 4.66042C35.6839 5.22303 36 5.98609 36 6.78174V17.6717C34.9425 16.7996 33.6843 16.2047 32.3392 15.9408C30.9941 15.6769 29.6044 15.7523 28.2958 16.1602C26.9871 16.5682 25.8007 17.2958 24.8438 18.2772C23.8869 19.2587 23.1896 20.4632 22.815 21.7817H16.185C15.8104 20.4632 15.1131 19.2587 14.1562 18.2772C13.1993 17.2958 12.0129 16.5682 10.7042 16.1602C9.39559 15.7523 8.00591 15.6769 6.66079 15.9408C5.31568 16.2047 4.05751 16.7996 3 17.6717V6.78174C3 5.98609 3.31607 5.22303 3.87868 4.66042C4.44129 4.09781 5.20435 3.78174 6 3.78174C6.39782 3.78174 6.77936 3.6237 7.06066 3.3424C7.34196 3.06109 7.5 2.67956 7.5 2.28174C7.5 1.88391 7.34196 1.50238 7.06066 1.22108C6.77936 0.939774 6.39782 0.781738 6 0.781738C4.4087 0.781738 2.88258 1.41388 1.75736 2.5391C0.632141 3.66432 0 5.19044 0 6.78174V24.0317C0.00403528 26.1521 0.82428 28.1894 2.29052 29.7211C3.75677 31.2527 5.75643 32.161 7.87456 32.2575C9.99269 32.354 12.0667 31.6312 13.6661 30.2393C15.2655 28.8473 16.2676 26.8929 16.4644 24.7817H22.5356C22.7324 26.8929 23.7345 28.8473 25.3339 30.2393C26.9333 31.6312 29.0073 32.354 31.1254 32.2575C33.2436 32.161 35.2432 31.2527 36.7095 29.7211C38.1757 28.1894 38.996 26.1521 39 24.0317V6.78174C39 5.19044 38.3679 3.66432 37.2426 2.5391C36.1174 1.41388 34.5913 0.781738 33 0.781738ZM8.25 29.2817C7.21165 29.2817 6.19661 28.9738 5.33326 28.397C4.4699 27.8201 3.79699 27.0001 3.39963 26.0408C3.00227 25.0815 2.89831 24.0259 3.10088 23.0075C3.30345 21.9891 3.80346 21.0537 4.53769 20.3194C5.27192 19.5852 6.20738 19.0852 7.22578 18.8826C8.24418 18.68 9.29978 18.784 10.2591 19.1814C11.2184 19.5787 12.0383 20.2516 12.6152 21.115C13.1921 21.9784 13.5 22.9934 13.5 24.0317C13.5 25.4241 12.9469 26.7595 11.9623 27.744C10.9777 28.7286 9.64239 29.2817 8.25 29.2817ZM30.75 29.2817C29.7116 29.2817 28.6966 28.9738 27.8333 28.397C26.9699 27.8201 26.297 27.0001 25.8996 26.0408C25.5023 25.0815 25.3983 24.0259 25.6009 23.0075C25.8034 21.9891 26.3035 21.0537 27.0377 20.3194C27.7719 19.5852 28.7074 19.0852 29.7258 18.8826C30.7442 18.68 31.7998 18.784 32.7591 19.1814C33.7184 19.5787 34.5383 20.2516 35.1152 21.115C35.6921 21.9784 36 22.9934 36 24.0317C36 25.4241 35.4469 26.7595 34.4623 27.744C33.4777 28.7286 32.1424 29.2817 30.75 29.2817Z" fill="white"/>
</svg>
