<svg width="45" height="31" viewBox="0 0 45 31" fill="none" xmlns="http://www.w3.org/2000/svg">
<path d="M44.8706 15.3486C44.805 15.2004 43.2169 11.6773 39.6862 8.14668C34.9819 3.4423 29.04 0.956055 22.5 0.956055C15.96 0.956055 10.0181 3.4423 5.31373 8.14668C1.78311 11.6773 0.187482 15.2061 0.129357 15.3486C0.0440692 15.5404 0 15.748 0 15.9579C0 16.1679 0.0440692 16.3755 0.129357 16.5673C0.194982 16.7154 1.78311 20.2367 5.31373 23.7673C10.0181 28.4698 15.96 30.9561 22.5 30.9561C29.04 30.9561 34.9819 28.4698 39.6862 23.7673C43.2169 20.2367 44.805 16.7154 44.8706 16.5673C44.9559 16.3755 45 16.1679 45 15.9579C45 15.748 44.9559 15.5404 44.8706 15.3486ZM22.5 27.9561C16.7287 27.9561 11.6869 25.8579 7.51311 21.7217C5.80057 20.0186 4.34358 18.0766 3.18748 15.9561C4.34327 13.8353 5.80029 11.8933 7.51311 10.1904C11.6869 6.05418 16.7287 3.95605 22.5 3.95605C28.2712 3.95605 33.3131 6.05418 37.4869 10.1904C39.2027 11.8929 40.6629 13.8349 41.8219 15.9561C40.47 18.4798 34.5806 27.9561 22.5 27.9561ZM22.5 6.95605C20.72 6.95605 18.9799 7.4839 17.4999 8.47283C16.0198 9.46176 14.8663 10.8674 14.1851 12.5119C13.5039 14.1564 13.3256 15.966 13.6729 17.7119C14.0202 19.4577 14.8773 21.0613 16.136 22.32C17.3947 23.5787 18.9983 24.4359 20.7442 24.7831C22.49 25.1304 24.2996 24.9522 25.9441 24.271C27.5887 23.5898 28.9943 22.4362 29.9832 20.9562C30.9721 19.4761 31.5 17.7361 31.5 15.9561C31.4975 13.5699 30.5485 11.2821 28.8612 9.59484C27.1739 7.90755 24.8862 6.95854 22.5 6.95605ZM22.5 21.9561C21.3133 21.9561 20.1533 21.6042 19.1666 20.9449C18.1799 20.2856 17.4108 19.3485 16.9567 18.2522C16.5026 17.1558 16.3838 15.9494 16.6153 14.7855C16.8468 13.6216 17.4182 12.5525 18.2573 11.7134C19.0965 10.8743 20.1656 10.3029 21.3294 10.0713C22.4933 9.83983 23.6997 9.95865 24.7961 10.4128C25.8924 10.8669 26.8295 11.6359 27.4888 12.6226C28.1481 13.6093 28.5 14.7694 28.5 15.9561C28.5 17.5474 27.8678 19.0735 26.7426 20.1987C25.6174 21.3239 24.0913 21.9561 22.5 21.9561Z" fill="white"/>
</svg>
