<svg width="39" height="39" viewBox="0 0 39 39" fill="none" xmlns="http://www.w3.org/2000/svg">
<path d="M38.2888 23.4513C38.0964 23.2585 37.8551 23.1217 37.5908 23.0556C37.3266 22.9896 37.0493 22.9967 36.7888 23.0763C33.9286 23.941 30.8874 24.0135 27.9893 23.2861C25.0912 22.5587 22.4447 21.0586 20.3318 18.9458C18.219 16.8329 16.7189 14.1864 15.9915 11.2883C15.2641 8.39015 15.3366 5.34896 16.2013 2.48879C16.2815 2.22816 16.2892 1.9506 16.2235 1.68593C16.1578 1.42127 16.0212 1.17953 15.8284 0.986703C15.6355 0.793878 15.3938 0.657265 15.1291 0.591558C14.8645 0.525851 14.5869 0.533536 14.3263 0.613785C10.372 1.82512 6.90042 4.25277 4.40566 7.55128C2.22394 10.4479 0.893139 13.8955 0.562783 17.5067C0.232428 21.118 0.915602 24.7498 2.53555 27.9942C4.1555 31.2386 6.64805 33.967 9.73316 35.8728C12.8183 37.7787 16.3737 38.7866 20 38.7832C24.2307 38.7962 28.3488 37.4209 31.7225 34.8682C35.021 32.3734 37.4487 28.9019 38.66 24.9475C38.7394 24.6879 38.7467 24.4116 38.6813 24.1481C38.616 23.8846 38.4803 23.6437 38.2888 23.4513ZM29.9188 32.4719C26.7417 34.8649 22.8071 36.0297 18.8393 35.7519C14.8715 35.474 11.1377 33.7723 8.32505 30.9599C5.51243 28.1475 3.81038 24.4138 3.53223 20.446C3.25408 16.4783 4.41856 12.5436 6.81129 9.36629C8.37017 7.30765 10.3855 5.63887 12.6988 4.49129C12.567 5.41608 12.5006 6.34902 12.5 7.28316C12.5055 12.4532 14.5617 17.4099 18.2175 21.0657C21.8733 24.7215 26.83 26.7777 32 26.7832C32.9361 26.7829 33.8709 26.7165 34.7975 26.5844C33.6489 28.8981 31.9788 30.9135 29.9188 32.4719Z" fill="white"/>
</svg>
