<svg width="30" height="42" viewBox="0 0 30 42" fill="none" xmlns="http://www.w3.org/2000/svg">
<path d="M16.5 0.914062H1.5C1.10218 0.914063 0.720645 1.0721 0.43934 1.3534C0.158036 1.63471 0 2.01624 0 2.41406V26.4141C0.00446645 30.3909 1.58625 34.2037 4.39833 37.0157C7.21041 39.8278 11.0231 41.4096 15 41.4141C15.3978 41.4141 15.7794 41.256 16.0607 40.9747C16.342 40.6934 16.5 40.3119 16.5 39.9141V27.9141C20.0804 27.9141 23.5142 26.4917 26.0459 23.96C28.5777 21.4283 30 17.9945 30 14.4141C30 10.8336 28.5777 7.39986 26.0459 4.86812C23.5142 2.33638 20.0804 0.914063 16.5 0.914062ZM3 8.14031L12.435 24.9141H3V8.14031ZM13.5 20.6878L4.065 3.91406H13.5V20.6878ZM3.09563 27.9141H13.5V38.3203C10.8583 37.9826 8.40344 36.7776 6.52045 34.8942C4.63746 33.0109 3.43287 30.5558 3.09563 27.9141ZM16.5 24.9141V3.91406C19.2848 3.91406 21.9555 5.02031 23.9246 6.98944C25.8938 8.95857 27 11.6293 27 14.4141C27 17.1988 25.8938 19.8696 23.9246 21.8387C21.9555 23.8078 19.2848 24.9141 16.5 24.9141Z" fill="white"/>
</svg>
