<svg width="37" height="37" viewBox="0 0 37 37" fill="none" xmlns="http://www.w3.org/2000/svg">
<path d="M6.5 34.897C6.5 35.2948 6.34196 35.6763 6.06066 35.9576C5.77936 36.2389 5.39782 36.397 5 36.397H3.5C2.70435 36.397 1.94129 36.0809 1.37868 35.5183C0.81607 34.9557 0.5 34.1926 0.5 33.397V31.897C0.5 31.4991 0.658036 31.1176 0.93934 30.8363C1.22064 30.555 1.60218 30.397 2 30.397C2.39782 30.397 2.77936 30.555 3.06066 30.8363C3.34196 31.1176 3.5 31.4991 3.5 31.897V33.397H5C5.39782 33.397 5.77936 33.555 6.06066 33.8363C6.34196 34.1176 6.5 34.4991 6.5 34.897ZM15.5 33.397H12.5C12.1022 33.397 11.7206 33.555 11.4393 33.8363C11.158 34.1176 11 34.4991 11 34.897C11 35.2948 11.158 35.6763 11.4393 35.9576C11.7206 36.2389 12.1022 36.397 12.5 36.397H15.5C15.8978 36.397 16.2794 36.2389 16.5607 35.9576C16.842 35.6763 17 35.2948 17 34.897C17 34.4991 16.842 34.1176 16.5607 33.8363C16.2794 33.555 15.8978 33.397 15.5 33.397ZM2 25.897C2.39782 25.897 2.77936 25.7389 3.06066 25.4576C3.34196 25.1763 3.5 24.7948 3.5 24.397V21.397C3.5 20.9991 3.34196 20.6176 3.06066 20.3363C2.77936 20.055 2.39782 19.897 2 19.897C1.60218 19.897 1.22064 20.055 0.93934 20.3363C0.658036 20.6176 0.5 20.9991 0.5 21.397V24.397C0.5 24.7948 0.658036 25.1763 0.93934 25.4576C1.22064 25.7389 1.60218 25.897 2 25.897ZM26 30.397C25.6022 30.397 25.2206 30.555 24.9393 30.8363C24.658 31.1176 24.5 31.4991 24.5 31.897V33.397H23C22.6022 33.397 22.2206 33.555 21.9393 33.8363C21.658 34.1176 21.5 34.4991 21.5 34.897C21.5 35.2948 21.658 35.6763 21.9393 35.9576C22.2206 36.2389 22.6022 36.397 23 36.397H24.5C25.2956 36.397 26.0587 36.0809 26.6213 35.5183C27.1839 34.9557 27.5 34.1926 27.5 33.397V31.897C27.5 31.4991 27.342 31.1176 27.0607 30.8363C26.7794 30.555 26.3978 30.397 26 30.397ZM26 15.397C26.3978 15.397 26.7794 15.2389 27.0607 14.9576C27.342 14.6763 27.5 14.2948 27.5 13.897V12.397C27.5 11.6013 27.1839 10.8383 26.6213 10.2757C26.0587 9.71304 25.2956 9.39697 24.5 9.39697H23C22.6022 9.39697 22.2206 9.55501 21.9393 9.83631C21.658 10.1176 21.5 10.4991 21.5 10.897C21.5 11.2948 21.658 11.6763 21.9393 11.9576C22.2206 12.2389 22.6022 12.397 23 12.397H24.5V13.897C24.5 14.2948 24.658 14.6763 24.9393 14.9576C25.2206 15.2389 25.6022 15.397 26 15.397ZM5 9.39697H3.5C2.70435 9.39697 1.94129 9.71304 1.37868 10.2757C0.81607 10.8383 0.5 11.6013 0.5 12.397V13.897C0.5 14.2948 0.658036 14.6763 0.93934 14.9576C1.22064 15.2389 1.60218 15.397 2 15.397C2.39782 15.397 2.77936 15.2389 3.06066 14.9576C3.34196 14.6763 3.5 14.2948 3.5 13.897V12.397H5C5.39782 12.397 5.77936 12.2389 6.06066 11.9576C6.34196 11.6763 6.5 11.2948 6.5 10.897C6.5 10.4991 6.34196 10.1176 6.06066 9.83631C5.77936 9.55501 5.39782 9.39697 5 9.39697ZM33.5 0.396973H12.5C11.7044 0.396973 10.9413 0.713043 10.3787 1.27565C9.81607 1.83826 9.5 2.60132 9.5 3.39697V10.897C9.49787 10.9313 9.49787 10.9658 9.5 11.0001C9.52616 11.3798 9.69568 11.7353 9.9742 11.9947C10.2527 12.2541 10.6194 12.3979 11 12.397H15.5C15.8978 12.397 16.2794 12.2389 16.5607 11.9576C16.842 11.6763 17 11.2948 17 10.897C17 10.4991 16.842 10.1176 16.5607 9.83631C16.2794 9.55501 15.8978 9.39697 15.5 9.39697H12.5V3.39697H33.5V24.397H27.5V21.397C27.5 20.9991 27.342 20.6176 27.0607 20.3363C26.7794 20.055 26.3978 19.897 26 19.897C25.6022 19.897 25.2206 20.055 24.9393 20.3363C24.658 20.6176 24.5 20.9991 24.5 21.397V25.897C24.5 26.2948 24.658 26.6763 24.9393 26.9576C25.2206 27.2389 25.6022 27.397 26 27.397H33.5C34.2957 27.397 35.0587 27.0809 35.6213 26.5183C36.1839 25.9557 36.5 25.1926 36.5 24.397V3.39697C36.5 2.60132 36.1839 1.83826 35.6213 1.27565C35.0587 0.713043 34.2957 0.396973 33.5 0.396973Z" fill="white"/>
</svg>
