<svg width="39" height="34" viewBox="0 0 39 34" fill="none" xmlns="http://www.w3.org/2000/svg">
<path d="M36 0.400879H3C2.20435 0.400879 1.44129 0.716949 0.87868 1.27956C0.31607 1.84217 0 2.60523 0 3.40088V30.4009C0 31.1965 0.31607 31.9596 0.87868 32.5222C1.44129 33.0848 2.20435 33.4009 3 33.4009H36C36.7957 33.4009 37.5587 33.0848 38.1213 32.5222C38.6839 31.9596 39 31.1965 39 30.4009V3.40088C39 2.60523 38.6839 1.84217 38.1213 1.27956C37.5587 0.716949 36.7957 0.400879 36 0.400879ZM36 3.40088V10.9009H3V3.40088H36ZM3 13.9009H13.5V30.4009H3V13.9009ZM36 30.4009H16.5V13.9009H36V30.4009Z" fill="white"/>
</svg>
