<svg width="43" height="43" viewBox="0 0 43 43" fill="none" xmlns="http://www.w3.org/2000/svg">
<path d="M42.382 10.7167C42.2328 10.2513 41.9487 9.84069 41.5659 9.53692C41.183 9.23315 40.7185 9.04993 40.2313 9.01049L33.2526 8.41987L30.5301 2.07299C30.3379 1.62804 30.0198 1.24907 29.6148 0.982825C29.2098 0.71658 28.7357 0.574707 28.251 0.574707C27.7664 0.574707 27.2923 0.71658 26.8873 0.982825C26.4823 1.24907 26.1641 1.62804 25.972 2.07299L23.2495 8.42174L16.2689 9.01049C15.7841 9.04943 15.3218 9.23104 14.9402 9.53242C14.5585 9.8338 14.2747 10.2414 14.1245 10.7039C13.9743 11.1664 13.9644 11.6631 14.0961 12.1312C14.2278 12.5993 14.4951 13.0179 14.8645 13.3342L20.1445 17.8342L18.5638 24.5336C18.4527 25.0032 18.4824 25.4951 18.6491 25.9479C18.8158 26.4008 19.1122 26.7945 19.5013 27.0799C19.895 27.369 20.3652 27.5356 20.8531 27.559C21.341 27.5823 21.825 27.4613 22.2445 27.2111L28.2445 23.6486L34.2445 27.2111C34.664 27.4613 35.1479 27.5823 35.6358 27.559C36.1237 27.5356 36.5939 27.369 36.9876 27.0799C37.3769 26.7946 37.6735 26.401 37.8402 25.9481C38.0069 25.4952 38.0365 25.0032 37.9251 24.5336L36.3445 17.8342L41.6226 13.3342C41.9941 13.0221 42.2645 12.6068 42.3997 12.1408C42.5349 11.6748 42.5287 11.1792 42.382 10.7167ZM34.1582 15.7792C33.8127 16.072 33.5552 16.4547 33.4142 16.885C33.2732 17.3153 33.2542 17.7763 33.3595 18.2167L34.7301 24.0292L29.5214 20.9336C29.1369 20.7044 28.6977 20.5834 28.2501 20.5834C27.8025 20.5834 27.3633 20.7044 26.9789 20.9336L21.7701 24.0105L23.1407 18.198C23.2475 17.7578 23.2295 17.2965 23.0887 16.866C22.948 16.4354 22.69 16.0526 22.3438 15.7605L17.7951 11.8942L23.812 11.3842C24.2585 11.3468 24.6865 11.1884 25.0498 10.9261C25.4132 10.6638 25.6983 10.3075 25.8745 9.89549L28.2501 4.36799L30.6201 9.89549C30.7966 10.3073 31.0818 10.6634 31.4451 10.9256C31.8084 11.1878 32.2362 11.3464 32.6826 11.3842L38.6995 11.8942L34.1582 15.7792ZM13.5614 21.1342L3.06135 31.6342C2.77989 31.9157 2.39815 32.0738 2.0001 32.0738C1.60206 32.0738 1.22031 31.9157 0.938852 31.6342C0.657391 31.3528 0.499268 30.971 0.499268 30.573C0.499268 30.1749 0.657391 29.7932 0.938852 29.5117L11.4389 19.0117C11.7203 18.7303 12.1021 18.5722 12.5001 18.5722C12.8981 18.5722 13.2799 18.7303 13.5614 19.0117C13.8428 19.2932 14.0009 19.6749 14.0009 20.073C14.0009 20.471 13.8428 20.8528 13.5614 21.1342ZM16.5614 31.6342L6.06135 42.1342C5.92199 42.2736 5.75654 42.3842 5.57445 42.4596C5.39236 42.535 5.19719 42.5738 5.0001 42.5738C4.80301 42.5738 4.60785 42.535 4.42576 42.4596C4.24367 42.3842 4.07822 42.2736 3.93885 42.1342C3.79949 41.9949 3.68894 41.8294 3.61351 41.6473C3.53809 41.4652 3.49927 41.2701 3.49927 41.073C3.49927 40.8759 3.53809 40.6807 3.61351 40.4986C3.68894 40.3166 3.79949 40.1511 3.93885 40.0117L14.4388 29.5117C14.7203 29.2303 15.1021 29.0722 15.5001 29.0722C15.8981 29.0722 16.2799 29.2303 16.5614 29.5117C16.8428 29.7932 17.0009 30.1749 17.0009 30.573C17.0009 30.971 16.8428 31.3528 16.5614 31.6342ZM30.0614 29.5117C30.2008 29.651 30.3115 29.8165 30.3869 29.9986C30.4624 30.1807 30.5013 30.3759 30.5013 30.573C30.5013 30.7701 30.4624 30.9653 30.3869 31.1474C30.3115 31.3295 30.2008 31.4949 30.0614 31.6342L19.5613 42.1342C19.422 42.2736 19.2565 42.3842 19.0744 42.4596C18.8924 42.535 18.6972 42.5738 18.5001 42.5738C18.303 42.5738 18.1078 42.535 17.9258 42.4596C17.7437 42.3842 17.5782 42.2736 17.4389 42.1342C17.2995 41.9949 17.1889 41.8294 17.1135 41.6473C17.0381 41.4652 16.9993 41.2701 16.9993 41.073C16.9993 40.8759 17.0381 40.6807 17.1135 40.4986C17.1889 40.3166 17.2995 40.1511 17.4389 40.0117L27.9389 29.5117C28.0782 29.3723 28.2436 29.2616 28.4257 29.1861C28.6078 29.1107 28.803 29.0718 29.0001 29.0718C29.1972 29.0718 29.3924 29.1107 29.5745 29.1861C29.7566 29.2616 29.922 29.3723 30.0614 29.5117Z" fill="white"/>
</svg>
