<svg width="39" height="38" viewBox="0 0 39 38" fill="none" xmlns="http://www.w3.org/2000/svg">
<path d="M33.1444 5.7748C29.5138 2.17964 24.6094 0.165183 19.5 0.17042H19.2994C14.1625 0.223274 9.25398 2.30104 5.6403 5.95229C2.02662 9.60353 -0.00027187 14.5333 2.73516e-08 19.6704C2.73516e-08 27.7329 4.98375 34.4942 13.005 37.3273C13.9097 37.6463 14.8777 37.7437 15.8278 37.6113C16.7779 37.4789 17.6825 37.1207 18.4656 36.5666C19.2486 36.0126 19.8875 35.2788 20.3285 34.4269C20.7694 33.5749 20.9997 32.6297 21 31.6704C21 30.8748 21.3161 30.1117 21.8787 29.5491C22.4413 28.9865 23.2043 28.6704 24 28.6704H32.6644C34.0254 28.677 35.3477 28.2179 36.4119 27.3693C37.476 26.5208 38.2179 25.3338 38.5144 24.0054C38.8497 22.5292 39.0126 21.0192 39 19.5054C38.9809 16.9432 38.4535 14.4102 37.4483 12.0532C36.4432 9.69628 34.9803 7.56225 33.1444 5.7748ZM35.5819 23.3454C35.4329 24.0072 35.0625 24.5983 34.5321 25.0211C34.0016 25.4438 33.3427 25.6729 32.6644 25.6704H24C22.4087 25.6704 20.8826 26.3026 19.7574 27.4278C18.6321 28.553 18 30.0791 18 31.6704C17.9993 32.1496 17.8838 32.6217 17.6633 33.047C17.4427 33.4724 17.1234 33.8388 16.7322 34.1155C16.3409 34.3922 15.8891 34.5711 15.4145 34.6373C14.9399 34.7035 14.4564 34.6551 14.0044 34.4961C7.21687 32.1017 3 26.4204 3 19.6704C2.99977 15.3238 4.71471 11.1526 7.77226 8.06307C10.8298 4.97358 14.9829 3.21537 19.3294 3.17042H19.4981C23.8447 3.1873 28.0105 4.91188 31.0972 7.97223C34.1839 11.0326 35.944 15.1835 35.9981 19.5298C36.0093 20.8132 35.8721 22.0935 35.5894 23.3454H35.5819ZM21.75 9.92042C21.75 10.3654 21.618 10.8004 21.3708 11.1705C21.1236 11.5405 20.7722 11.8289 20.361 11.9992C19.9499 12.1694 19.4975 12.214 19.061 12.1272C18.6246 12.0404 18.2237 11.8261 17.909 11.5114C17.5943 11.1967 17.38 10.7958 17.2932 10.3594C17.2064 9.92292 17.251 9.47052 17.4213 9.05938C17.5916 8.64825 17.88 8.29685 18.25 8.04961C18.62 7.80238 19.055 7.67042 19.5 7.67042C20.0967 7.67042 20.669 7.90747 21.091 8.32943C21.5129 8.75139 21.75 9.32368 21.75 9.92042ZM13.5 14.4204C13.5 14.8654 13.368 15.3004 13.1208 15.6705C12.8736 16.0405 12.5222 16.3289 12.111 16.4992C11.6999 16.6694 11.2475 16.714 10.811 16.6272C10.3746 16.5404 9.97368 16.3261 9.65901 16.0114C9.34434 15.6967 9.13005 15.2958 9.04323 14.8594C8.95642 14.4229 9.00097 13.9705 9.17127 13.5594C9.34157 13.1482 9.62996 12.7968 9.99997 12.5496C10.37 12.3024 10.805 12.1704 11.25 12.1704C11.8467 12.1704 12.419 12.4075 12.841 12.8294C13.2629 13.2514 13.5 13.8237 13.5 14.4204ZM13.5 24.9204C13.5 25.3654 13.368 25.8004 13.1208 26.1705C12.8736 26.5405 12.5222 26.8289 12.111 26.9992C11.6999 27.1694 11.2475 27.214 10.811 27.1272C10.3746 27.0404 9.97368 26.8261 9.65901 26.5114C9.34434 26.1967 9.13005 25.7958 9.04323 25.3594C8.95642 24.9229 9.00097 24.4705 9.17127 24.0594C9.34157 23.6483 9.62996 23.2969 9.99997 23.0496C10.37 22.8024 10.805 22.6704 11.25 22.6704C11.8467 22.6704 12.419 22.9075 12.841 23.3294C13.2629 23.7514 13.5 24.3237 13.5 24.9204ZM30 14.4204C30 14.8654 29.868 15.3004 29.6208 15.6705C29.3736 16.0405 29.0222 16.3289 28.611 16.4992C28.1999 16.6694 27.7475 16.714 27.311 16.6272C26.8746 16.5404 26.4737 16.3261 26.159 16.0114C25.8443 15.6967 25.63 15.2958 25.5432 14.8594C25.4564 14.4229 25.501 13.9705 25.6713 13.5594C25.8416 13.1482 26.13 12.7968 26.5 12.5496C26.87 12.3024 27.305 12.1704 27.75 12.1704C28.3467 12.1704 28.919 12.4075 29.341 12.8294C29.7629 13.2514 30 13.8237 30 14.4204Z" fill="white"/>
</svg>
