<svg width="44" height="29" viewBox="0 0 44 29" fill="none" xmlns="http://www.w3.org/2000/svg">
<path d="M14.8574 1.10212C14.7363 0.844422 14.5443 0.626529 14.3039 0.473906C14.0635 0.321282 13.7846 0.240234 13.4999 0.240234C13.2151 0.240234 12.9363 0.321282 12.6959 0.473906C12.4555 0.626529 12.2635 0.844422 12.1424 1.10212L0.142392 26.6021C0.0585515 26.7804 0.0106443 26.9734 0.00140623 27.1702C-0.00783181 27.367 0.0217801 27.5637 0.0885512 27.749C0.223402 28.1233 0.501423 28.4287 0.861455 28.5981C1.22149 28.7674 1.63404 28.7867 2.00835 28.6519C2.38266 28.517 2.68807 28.239 2.85739 27.879L5.98114 21.2415H21.0186L24.1424 27.879C24.2262 28.0573 24.3444 28.2173 24.49 28.3499C24.6357 28.4825 24.8061 28.5851 24.9914 28.6519C25.1768 28.7187 25.3735 28.7483 25.5702 28.739C25.767 28.7298 25.9601 28.6819 26.1383 28.5981C26.3166 28.5142 26.4766 28.3961 26.6092 28.2504C26.7418 28.1047 26.8445 27.9344 26.9112 27.749C26.978 27.5637 27.0076 27.367 26.9984 27.1702C26.9891 26.9734 26.9412 26.7804 26.8574 26.6021L14.8574 1.10212ZM7.39302 18.2415L13.4999 5.26462L19.6068 18.2415H7.39302ZM35.9999 9.24149C33.6074 9.24149 31.738 9.89212 30.4443 11.1765C30.1734 11.4589 30.0236 11.8359 30.0268 12.2271C30.03 12.6184 30.186 12.9929 30.4614 13.2708C30.7369 13.5487 31.11 13.708 31.5012 13.7146C31.8924 13.7213 32.2708 13.5748 32.5555 13.3065C33.268 12.5996 34.4305 12.2415 35.9999 12.2415C38.4805 12.2415 40.4999 13.929 40.4999 15.9915V16.5952C39.1688 15.7047 37.6014 15.2332 35.9999 15.2415C31.8636 15.2415 28.4999 18.2696 28.4999 21.9915C28.4999 25.7134 31.8636 28.7415 35.9999 28.7415C37.6021 28.7485 39.1696 28.275 40.4999 27.3821C40.5185 27.7799 40.6945 28.1541 40.989 28.4222C41.2834 28.6903 41.6724 28.8305 42.0702 28.8118C42.468 28.7932 42.8422 28.6172 43.1103 28.3227C43.3784 28.0283 43.5185 27.6393 43.4999 27.2415V15.9915C43.4999 12.2696 40.1361 9.24149 35.9999 9.24149ZM35.9999 25.7415C33.5193 25.7415 31.4999 24.054 31.4999 21.9915C31.4999 19.929 33.5193 18.2415 35.9999 18.2415C38.4805 18.2415 40.4999 19.929 40.4999 21.9915C40.4999 24.054 38.4805 25.7415 35.9999 25.7415Z" fill="white"/>
</svg>
