<svg width="50" height="34" viewBox="0 0 50 34" fill="none" xmlns="http://www.w3.org/2000/svg">
<path fill-rule="evenodd" clip-rule="evenodd" d="M5.86099 10.0856V11.3959C3.60632 13.8453 1.90743 17.7882 2.5988 21.5082C4.0104 29.0538 14.1024 30.456 23.7863 29.5632C29.7381 29.0128 36.8847 26.893 41.2034 24.3288V28.0288C36.4444 30.6332 29.5978 32.3113 24.3676 32.8201C11.1476 34.1009 2.4867 30.2432 0.867689 23.4361C-0.40027 18.1272 1.80204 13.6338 5.86099 10.0856ZM32.1834 12.3148C34.867 12.3148 36.4175 14.4789 36.4175 17.3129V18.2178H30.0274C30.0274 19.5019 30.8288 20.4477 32.2586 20.4477C33.3715 20.4477 33.9239 20.1402 34.5676 19.5019L36.1229 20.9833C35.1267 21.9633 34.0823 22.5594 32.2404 22.5594C29.8287 22.5594 27.5217 21.2485 27.5217 17.4277C27.5217 14.1628 29.536 12.3148 32.1834 12.3148ZM10.1931 12.4826V22.5044C8.29354 22.3231 7.64781 21.174 7.64781 19.8489L7.6505 12.4833L10.1931 12.4826ZM12.4283 12.4826L17.6277 12.488C19.8361 12.488 20.5892 14.0413 20.5892 15.4522V22.4003H18.0747V15.465C18.0747 14.8743 17.768 14.5105 17.0276 14.5105H14.9468V22.4003H12.4277L12.4283 12.4826ZM11.1913 6.62461C25.2234 -1.89355 46.9928 -1.18538 49.2931 9.99765C50.5255 15.9879 46.282 20.8826 42.1445 22.3916V19.7214C45.5819 17.6808 47.507 14.1299 46.9008 10.7239C45.0899 0.423606 25.2093 0.380646 11.1913 7.56504V6.62461ZM24.9878 9.78083V12.4833H26.8833V14.5105H24.9878V19.3998C24.9878 19.9758 25.2603 20.296 25.8604 20.296H26.8833V22.3883H25.3952C23.3433 22.3883 22.4727 20.9639 22.4727 19.5569V9.78083H24.9878ZM40.4194 8.36852V22.2929C38.5245 22.1104 37.8822 20.9639 37.8822 19.6402V8.36852H40.4194ZM32.0746 14.3916C31.2135 14.3916 30.5469 14.8333 30.269 15.4321C30.1039 15.7919 30.0475 16.0678 30.0274 16.5081H33.9031C33.8534 15.4321 33.3641 14.3916 32.0746 14.3916ZM10.1864 8.71086V11.1133H7.6505V8.71086H10.1864ZM43.1554 8.36852C43.4229 8.36887 43.6794 8.47499 43.8691 8.66373C44.0587 8.85247 44.166 9.10853 44.1676 9.37607C44.1676 9.93119 43.7111 10.3829 43.1554 10.3829C42.8883 10.3829 42.6322 10.2769 42.4434 10.088C42.2546 9.89921 42.1485 9.64311 42.1485 9.37607C42.1485 9.10903 42.2546 8.85293 42.4434 8.6641C42.6322 8.47527 42.8883 8.36852 43.1554 8.36852ZM43.1554 8.53633C42.9334 8.53633 42.7205 8.62452 42.5635 8.7815C42.4065 8.93848 42.3183 9.15138 42.3183 9.37338C42.3183 9.59538 42.4065 9.80829 42.5635 9.96527C42.7205 10.1222 42.9334 10.2104 43.1554 10.2104C43.3768 10.2101 43.5892 10.1222 43.7461 9.96587C43.9031 9.80957 43.9918 9.59755 43.9931 9.37607C43.9931 8.9176 43.6152 8.53633 43.1554 8.53633ZM43.0976 8.73301C43.4098 8.73301 43.5984 8.82497 43.5984 9.11764V9.13777C43.5984 9.31901 43.5084 9.41433 43.3681 9.46132L43.6339 9.90971C43.636 9.91844 43.642 9.93119 43.642 9.94126C43.642 9.95939 43.6313 9.97885 43.6017 9.97885H43.4138C43.4055 9.97874 43.3975 9.97636 43.3905 9.97198C43.3835 9.9676 43.3779 9.96139 43.3742 9.95401L43.1178 9.52039C43.1131 9.51166 43.0909 9.50092 43.0822 9.50092H42.9674V9.93052C42.9674 9.95401 42.9513 9.97885 42.9211 9.97885H42.7513C42.7298 9.97885 42.7083 9.95401 42.7083 9.93119V8.84377C42.7083 8.78067 42.7332 8.75449 42.7869 8.74644C42.8466 8.73838 43.0097 8.73301 43.0976 8.73301ZM43.1178 8.95587H42.9594V9.3029C42.9822 9.3029 43.0976 9.3076 43.1178 9.3076C43.2822 9.3076 43.354 9.25256 43.354 9.13777V9.11764C43.354 8.9948 43.2822 8.95587 43.1178 8.95587Z" fill="#B3BCC0"/>
</svg>
