<svg width="99" height="33" viewBox="0 0 99 33" fill="none" xmlns="http://www.w3.org/2000/svg">
<path fill-rule="evenodd" clip-rule="evenodd" d="M98.0104 8.57306C98.7158 12.5677 93.2011 17.2197 83.8444 21.3971C84.3791 21.0064 84.7391 20.4291 84.8138 19.6184C84.8444 19.2857 84.8484 19.1484 84.8504 18.9611V16.2864H81.2731V17.7411H82.3071V19.1871C82.3091 19.3124 82.3031 19.4517 82.2851 19.5657C82.2384 19.8304 81.9824 20.2871 81.2524 20.2871C80.5224 20.2871 80.2684 19.8304 80.2284 19.5697C80.2078 19.4446 80.1989 19.3178 80.2018 19.1911V14.6331C80.2018 14.4717 80.2144 14.2944 80.2444 14.1631C80.2991 13.9137 80.5124 13.4364 81.2484 13.4364C82.0191 13.4364 82.2124 13.9417 82.2551 14.1631C82.2831 14.3044 82.2891 14.5431 82.2871 14.5417V15.0991H84.8298L84.8304 14.7451L84.8311 14.6851V14.5564C84.8298 14.4072 84.822 14.2582 84.8078 14.1097C84.6224 12.2431 83.0558 11.6471 81.2671 11.6471C79.4758 11.6471 77.9478 12.2471 77.7238 14.1091C77.7038 14.2764 77.6811 14.5891 77.6811 14.7664L77.6791 18.9617C77.6831 19.1491 77.6871 19.2864 77.7158 19.6191C77.8871 21.4324 79.4758 22.0791 81.2671 22.0791C81.7181 22.0829 82.1682 22.0352 82.6084 21.9371C74.4731 25.4104 63.6978 28.5151 51.6938 30.5797C24.7871 35.2091 1.89709 32.8604 0.569757 25.3331C-0.14891 21.2544 5.61042 16.4944 15.3198 12.2531C14.8278 12.6031 14.4891 13.1097 14.3731 13.8097C14.3011 14.2577 14.2904 14.6564 14.3958 15.1564C14.8371 17.1897 18.4184 17.7797 18.9391 19.0711C19.0378 19.3117 19.0078 19.6224 18.9611 19.8097C18.8764 20.1404 18.6484 20.4791 17.9791 20.4791C17.3458 20.4791 16.9624 20.1204 16.9624 19.5751V18.6104H14.2564L14.2544 19.3817L14.2584 19.5584C14.3504 21.6384 16.0764 22.2744 17.9224 22.2744C19.7478 22.2744 21.2498 21.6584 21.4878 19.9971C21.6111 19.1371 21.5184 18.5731 21.4778 18.3597C21.0524 16.2737 17.2231 15.6504 16.9384 14.4851C16.8991 14.3123 16.8957 14.1332 16.9284 13.9591C16.9991 13.6424 17.2191 13.2924 17.8498 13.2924C18.4384 13.2924 18.7878 13.6524 18.7878 14.1964V14.8117H21.3024V14.1131L21.2978 13.9364C21.1931 11.9231 19.2904 11.6031 17.9024 11.6031C17.4031 11.6031 16.9291 11.6484 16.4998 11.7491C24.5718 8.36573 35.1431 5.34973 46.8898 3.32907C73.7991 -1.30427 96.6844 1.0464 98.0098 8.5724L98.0104 8.57306ZM50.7104 11.6564C48.9351 11.6564 47.4811 12.2337 47.2191 13.8457C47.1387 14.2865 47.1469 14.7388 47.2431 15.1764C47.6764 17.1897 51.2238 17.7764 51.7384 19.0531C51.8371 19.2917 51.8051 19.5951 51.7604 19.7824C51.6778 20.1124 51.4518 20.4451 50.7864 20.4451C50.1631 20.4451 49.7824 20.0871 49.7824 19.5531L49.7804 18.5971H47.1024L47.0984 19.3577L47.1024 19.5377C47.1958 21.5931 48.9044 22.2204 50.7298 22.2204C52.5344 22.2204 54.0231 21.6131 54.2591 19.9671C54.3818 19.1124 54.2951 18.5571 54.2511 18.3477C53.8278 16.2817 50.0378 15.6644 49.7558 14.5091C49.7164 14.3397 49.713 14.1639 49.7458 13.9931C49.8191 13.6724 50.0344 13.3317 50.6591 13.3317C51.2444 13.3317 51.5851 13.6824 51.5851 14.2244V14.8337H54.0818V14.1404L54.0771 13.9657C53.9731 11.9744 52.0864 11.6564 50.7104 11.6564ZM59.2118 11.9131H56.6624V19.1371C56.6624 19.3324 56.6778 19.6324 56.6851 19.7144C56.8624 21.5744 58.3524 22.1784 60.2078 22.1784C62.0611 22.1784 63.5491 21.5751 63.7284 19.7144C63.7391 19.6211 63.7571 19.2444 63.7511 19.0611V11.9131H61.1998V19.2877C61.2018 19.4177 61.1958 19.5611 61.1758 19.6684C61.1271 19.9137 60.9091 20.3917 60.2098 20.3917C59.5038 20.3917 59.2924 19.9117 59.2364 19.6664C59.2174 19.5407 59.2092 19.4135 59.2118 19.2864V11.9131ZM29.5418 11.9171H25.0551L23.1858 21.8817H25.9104L27.2918 12.8417H27.3478L28.6911 21.8817H31.4051L29.5418 11.9171ZM37.7551 11.9171H33.6398L33.4158 21.8817H35.9424L36.0051 12.9231H36.0598L37.7471 21.8817H40.3064L41.9924 12.9231H42.0444L42.1111 21.8817H44.6318L44.4138 11.9171H40.3004L39.0538 19.5351H38.9998L37.7551 11.9171ZM70.3111 11.9171H66.5644V21.7784H69.0464L68.9071 13.6864H68.9618L71.4544 21.7784H75.0438V11.9171H72.5471L72.6844 19.7404H72.6298L70.3111 11.9171Z" fill="#B3BCC0"/>
</svg>
