<svg width="129" height="14" viewBox="0 0 129 14" fill="none" xmlns="http://www.w3.org/2000/svg">
<path d="M70.487 0.496826C65.9384 0.496826 63.5827 3.24941 63.5827 6.95538C63.5827 10.677 65.9384 13.4443 70.487 13.4443C75.0497 13.4443 77.4054 10.677 77.4054 6.95538C77.4128 3.24941 75.0497 0.496826 70.487 0.496826ZM109.913 0.496826C106.066 0.496826 104.135 2.00122 104.135 4.66594C104.135 6.83138 105.417 7.85128 108.071 8.12966L111.024 8.43842C112.15 8.56324 112.664 8.98861 112.664 9.54701C112.664 10.1777 111.912 10.7435 110.1 10.7435C108.005 10.7435 107.162 10.2212 107.02 9.17173H103.956C104.098 12.0048 105.969 13.4517 109.988 13.4517C113.656 13.4517 115.706 11.8652 115.706 9.47968C115.706 7.40292 114.492 6.15555 112.195 5.89935L109.287 5.5758C107.587 5.39268 107.162 4.97388 107.162 4.40809C107.162 3.77743 108.034 3.21246 109.742 3.21246C111.383 3.21246 112.24 3.81438 112.396 4.71767H115.52C115.363 2.11126 113.149 0.496826 109.913 0.496826ZM38.5608 0.789986V8.76115C38.5608 12.3136 41.7817 13.4221 44.48 13.4221C47.1643 13.4221 50.3713 12.3136 50.3713 8.76115V0.789986H47.1791V8.40229H47.1947C47.1947 10.0019 46.1964 10.6474 44.489 10.6474C42.8334 10.6474 41.7529 9.97238 41.7529 8.40147V0.789986H38.5608ZM11.7871 0.83433L0.625732 7.65995V13.1421H0.721866L11.9128 6.28776H17.7219C17.9002 6.28776 18.0646 6.42736 18.0646 6.62527C18.0646 6.78622 17.9906 6.85273 17.9002 6.90447L12.405 10.1481C12.0476 10.3608 11.9202 10.7788 11.9202 11.0949L11.912 13.1421H18.8994V1.2597C18.899 1.20206 18.887 1.14509 18.864 1.0922C18.8411 1.0393 18.8078 0.991575 18.766 0.951864C18.7241 0.912154 18.6748 0.881278 18.6207 0.861083C18.5667 0.840888 18.5092 0.831789 18.4516 0.83433H11.7871ZM29.2415 0.83433L24.4464 13.1438H27.742L28.5777 10.8379H33.9307L34.7508 13.1429H38.1582L33.3046 0.83433H29.2415ZM51.8322 0.83433V3.49823H55.8665V13.1429H59.0496V3.49823H63.0683V0.83433H51.8322ZM79.1424 0.83433V13.1438H84.9885C89.4698 13.1438 90.7072 11.4981 90.7072 6.89708C90.7072 2.57358 89.5215 0.83433 84.9885 0.83433H79.1424ZM92.4893 0.83433V13.1438H102.555V10.4782H95.6807V8.24709H101.212V5.5758H95.6807V3.49823H102.555V0.83433H92.4893ZM117.331 0.83433L117.346 13.1438H120.523V8.46799L124.833 13.1429H128.867L123.051 7.06624L128.867 0.83433H125.071L120.523 5.83283V0.83433H117.331ZM70.487 3.26419C72.8649 3.26419 74.1409 4.69468 74.1409 6.95538C74.1475 9.26781 72.8649 10.677 70.487 10.677C68.1305 10.677 66.834 9.26042 66.834 6.95538C66.834 4.69468 68.1305 3.26419 70.487 3.26419ZM31.2768 3.39558L32.9982 8.21835H29.5242L31.2768 3.39558ZM82.3263 3.49823H84.8619C86.8602 3.49823 87.4559 4.03445 87.4559 6.89708C87.4559 9.51006 86.7854 10.4782 84.8619 10.4782H82.3271L82.3263 3.49823Z" fill="#B3BCC0"/>
</svg>
