<svg width="33" height="33" viewBox="0 0 33 33" fill="none" xmlns="http://www.w3.org/2000/svg">
<path fill-rule="evenodd" clip-rule="evenodd" d="M16.1756 0.953125C25.0123 0.953125 32.1763 8.11846 32.1763 16.9565C32.1763 25.7898 25.0123 32.9531 16.1756 32.9531C7.3376 32.9531 0.17627 25.7905 0.17627 16.9565C0.17627 8.11979 7.3376 0.953125 16.1756 0.953125ZM6.98494 14.7118C6.97494 14.7638 6.9496 14.7818 6.9496 14.7818C6.01827 14.6551 5.50294 14.4645 5.50294 14.4645L5.2916 15.0645C5.9196 15.3618 6.8436 15.4525 6.8436 15.4525C6.6636 16.6058 5.75027 18.7685 5.75027 18.7685C5.75027 18.7685 4.94027 18.5218 3.9156 18.5218C2.5836 18.5218 2.1156 19.1485 2.08094 19.5445C1.99427 20.5718 3.29627 21.0618 4.19827 21.0618C5.8316 21.0618 6.74294 20.2405 6.86494 20.1231L6.87894 20.1091C6.87894 20.1091 11.8056 21.9791 16.9689 21.9791C23.7263 21.9791 29.4223 20.1791 29.4223 20.1791L29.2456 19.5445C29.2456 19.5445 25.1176 20.9825 17.2156 20.8851C11.9463 20.8211 7.86494 19.3318 7.59827 19.2318L7.58494 19.2271C7.58494 19.2271 7.74294 18.9451 7.8316 18.7685C8.37827 17.6551 9.0316 15.4171 9.0316 15.4171C9.0316 15.4171 12.7703 14.3705 12.7703 11.3951C12.7703 10.4545 11.8716 9.84579 11.0069 9.80846C7.98827 9.69112 7.17094 13.9791 6.98494 14.7118ZM3.8096 19.2978C4.30482 19.3318 4.79231 19.4387 5.25627 19.6151C5.25627 19.6151 4.4616 20.2305 3.8096 20.2505C3.3116 20.2658 2.99827 19.9411 2.99827 19.7565C2.99827 19.4498 3.28627 19.3258 3.56294 19.2978C3.65494 19.2885 3.7296 19.2918 3.8096 19.2978ZM25.5056 14.8525C23.7023 14.8525 22.7256 16.4078 22.6836 17.3218C22.6749 17.5211 22.6483 17.5338 22.6483 17.5338C22.6063 17.5818 21.9849 18.3098 21.2016 18.3098C20.5749 18.3098 20.4616 17.7991 20.4616 17.4631C20.4616 17.0991 20.7716 15.6638 21.6256 15.6638C22.0183 15.6638 22.2769 15.9418 22.3469 16.0271L22.3663 16.0518L22.6129 15.2405C22.6129 15.2405 22.2236 14.9258 21.4136 14.9231C19.6696 14.9218 18.4923 16.2131 18.4503 17.3925C18.4416 17.5691 18.4123 17.6285 18.4149 17.6391C18.3569 17.7105 17.9496 18.2038 17.3916 18.2038C17.0109 18.2038 17.0036 17.9118 17.0036 17.7805C17.0036 17.7038 17.1403 17.1871 17.2956 16.6225L17.4143 16.1958C17.5849 15.5838 17.7449 15.0291 17.7449 15.0291L15.7689 15.0645L15.0989 17.5691C15.0989 17.5691 13.9983 18.3438 12.4883 18.4511C11.7096 18.5045 11.4303 18.0231 11.4303 17.7458V17.6391C11.4316 17.6391 11.7569 17.6751 11.9943 17.6751C12.1809 17.6751 14.4989 17.4951 14.4989 16.0871C14.4989 15.2818 13.6823 14.9938 12.6649 14.9938C10.7836 14.9938 9.45427 16.1491 9.45427 17.5338C9.45427 18.7965 10.5323 19.3331 11.9236 19.3331C13.5029 19.3331 15.0636 18.3805 15.0636 18.3805C15.0636 18.3805 15.1583 19.3331 16.4036 19.3331C17.6903 19.3331 18.6969 18.3805 18.6969 18.3805C18.6969 18.3805 19.2529 19.2978 20.5316 19.2978C21.8383 19.2978 22.8249 18.2391 22.8249 18.2391C22.8249 18.2391 23.1889 19.2271 24.4829 19.2271C25.0332 19.2334 25.5651 19.0301 25.9709 18.6585L26.0189 18.6098L26.0349 18.5925C26.0349 18.5925 26.3176 19.2271 27.1996 19.2271C28.2763 19.2271 29.0689 18.4865 29.0689 18.4865L28.8929 17.8511C28.8929 17.8511 28.4836 18.1685 28.1869 18.1685C27.9629 18.1685 27.8343 17.9865 27.8343 17.7805C27.8343 17.5825 27.9703 17.0485 28.1256 16.5031L28.2049 16.2311C28.3896 15.6011 28.5749 15.0291 28.5749 15.0291L26.7763 15.0645L26.7056 15.3465C26.7056 15.3465 26.4369 14.8525 25.5056 14.8525ZM25.8589 15.5938C26.2296 15.5938 26.4229 15.8885 26.4229 16.1225C26.4229 16.1705 26.2129 18.3098 25.1529 18.3098C24.6676 18.3098 24.6596 17.7585 24.6596 17.6045C24.6596 17.1965 24.9796 15.5938 25.8589 15.5938ZM12.7349 15.5585C13.0003 15.5738 13.2023 15.7531 13.1936 15.9465C13.1503 17.1998 11.6069 17.0045 11.6069 17.0045C11.6069 17.0045 11.8336 15.5031 12.7349 15.5578V15.5585ZM11.1483 10.6545C11.7283 10.6545 11.9363 11.1131 11.8883 11.5365C11.6063 14.0218 9.13694 14.6058 9.13694 14.6058C9.13694 14.6058 9.73427 10.6545 11.1483 10.6545ZM17.1449 12.7011C16.5169 12.7011 16.0869 12.9591 16.0869 13.5478C16.0869 14.1431 16.5889 14.2878 17.1449 14.2878C17.7023 14.2878 18.2383 14.0478 18.2383 13.4411C18.2383 12.8331 17.5996 12.7011 17.1449 12.7011Z" fill="#B3BCC0"/>
</svg>
