<svg width="56" height="34" viewBox="0 0 56 34" fill="none" xmlns="http://www.w3.org/2000/svg">
<path d="M3.59894 7.30402V9.42521H1.10181V12.1949H3.59894V23.3105C3.59894 24.1548 4.50309 24.8295 5.64132 24.8295C6.77821 24.8295 7.69912 24.1548 7.69912 23.3105V12.1956H11.0233V9.42521H7.69912V7.30469C7.69912 4.74693 9.77772 4.27481 12.6223 4.88575V2.11607C8.62071 1.257 3.59827 1.6587 3.59827 7.30469L3.59894 7.30402ZM16.3878 12.1942H16.3033V9.42588H12.9805V23.3098C12.9805 24.1548 13.8839 24.8295 15.0228 24.8295C16.1597 24.8295 17.08 24.1548 17.08 23.3098V16.3306C17.08 13.0332 19.3068 12.1935 22.0031 12.1935V9.07514C19.565 9.06844 17.2812 9.84032 16.3885 12.1935L16.3878 12.1942ZM45.085 9.07581C41.1264 9.07581 37.9156 10.9683 37.9156 14.6863C37.9156 16.668 38.8278 18.1299 40.2799 19.0648C40.1733 19.1318 40.068 19.2016 39.9667 19.274C38.1658 20.5569 37.9726 22.7713 39.6239 23.9805C38.8144 24.6645 37.6701 25.9072 37.6701 27.6333C37.6701 30.3702 40.3208 32.1386 45.079 32.1386C49.8365 32.1386 53.4699 29.9866 53.4699 26.673C53.4699 23.3601 51.0841 22.0605 46.7297 22.0605H43.8952C41.9017 22.0605 42.0708 20.7299 42.7294 20.1579C42.763 20.1297 42.7992 20.1009 42.8381 20.0721C43.5773 20.2242 44.3303 20.299 45.085 20.2954C49.045 20.2954 52.2545 18.4042 52.2545 14.6863C52.2545 13.8493 52.0902 13.1036 51.7937 12.4531C52.3605 12.2928 52.9896 12.215 53.6536 12.1942V9.42521C51.893 9.42521 50.7561 9.53921 49.5535 10.1046C48.3287 9.41984 46.776 9.07581 45.085 9.07581ZM42.9085 24.8295H46.7297C48.2992 24.8295 49.369 25.2989 49.369 26.6737C49.369 28.5199 47.7277 29.3696 45.079 29.3696C40.9896 29.3696 41.2337 26.1345 42.9085 24.8295ZM45.085 17.5243C43.3908 17.5243 42.0158 16.8906 42.0158 14.6849C42.0158 12.4786 43.3908 11.8468 45.085 11.8468C46.7807 11.8468 48.1543 12.4792 48.1543 14.6849C48.1543 16.8906 46.7807 17.5243 45.085 17.5243ZM29.4523 9.07581C25.002 9.07581 22.2835 11.7322 22.2835 16.953C22.2835 22.1738 25.002 24.8295 29.4523 24.8295C33.9026 24.8295 36.6211 22.1738 36.6211 16.953C36.6211 11.7322 33.9026 9.07581 29.4523 9.07581ZM29.4523 22.0605C27.758 22.0605 26.3837 21.3959 26.3837 16.953C26.3837 12.5121 27.758 11.8495 29.4523 11.8495C31.1472 11.8495 32.5209 12.5121 32.5209 16.953C32.5209 21.3959 31.1472 22.0605 29.4523 22.0605Z" fill="#B3BCC0"/>
</svg>
