<svg width="100" height="33" viewBox="0 0 100 33" fill="none" xmlns="http://www.w3.org/2000/svg">
<path fill-rule="evenodd" clip-rule="evenodd" d="M65.0384 0.90625C68.1288 0.90625 70.6279 1.60041 72.2038 2.22904L71.1175 8.93927L70.3951 8.60891C68.9495 7.98029 67.0411 7.353 64.4444 7.41921C61.2897 7.41921 59.8756 8.77409 59.8422 10.0962C59.8422 11.5514 61.554 12.5104 64.348 13.9315C68.9509 16.1464 71.0854 18.8568 71.054 22.3945C70.9891 28.8399 65.532 33.0062 57.1498 33.0062C53.5657 32.9728 50.1134 32.2104 48.2398 31.3524L49.3576 24.3774L50.4098 24.8736C53.0065 26.0319 54.7156 26.5267 57.905 26.5267C60.2054 26.5267 62.6711 25.5671 62.7025 23.4853C62.7025 22.1297 61.6523 21.1373 58.5619 19.6165C55.5377 18.1286 51.4941 15.6495 51.5597 11.1863C51.5938 5.13743 57.1498 0.90625 65.0384 0.90625ZM48.2405 1.46934L43.2436 32.5428H35.2561L40.2522 1.46934H48.2405ZM92.6828 1.46934L99.1278 32.5428H91.7309C91.7309 32.5428 91.0071 28.9724 90.7777 27.8816H80.5205L78.8442 32.5428H70.462L82.3279 4.04737C83.15 2.03109 84.5976 1.46934 86.5033 1.46934H92.6828ZM13.4942 1.46934C15.2367 1.53487 16.6501 2.09663 17.1103 4.08148L19.9044 18.3626V18.3613L20.7593 22.6587L28.583 1.46934H37.0301L24.4731 32.51H16.0253L8.90604 5.51059C6.44977 4.06609 3.64499 2.90381 0.509766 2.09729L0.641543 1.46934H13.4942ZM87.0619 9.86549C86.9936 10.0668 86.916 10.2901 86.8351 10.5209L86.7113 10.872C86.3568 11.8731 85.9862 12.8896 86.011 12.8408C86.011 12.8408 83.4798 19.7496 82.8216 21.5345H89.4619C88.8499 18.573 88.2431 15.6105 87.6418 12.6468L87.6231 12.5552L87.6204 12.5432L87.0619 9.86549Z" fill="#B3BCC0"/>
</svg>
