<svg width="100" height="33" viewBox="0 0 100 33" fill="none" xmlns="http://www.w3.org/2000/svg">
<path fill-rule="evenodd" clip-rule="evenodd" d="M69.4804 9.77722C71.4203 9.77722 72.9601 10.6272 73.7628 11.5715H73.8879V10.2654H77.2787V24.6636C77.2787 30.5867 73.7374 33.0062 69.5506 33.0062C65.6094 33.0062 63.2367 30.4061 62.3424 28.2795L65.4515 27.0029C66.0047 28.3083 67.3613 29.8491 69.5466 29.8491C72.227 29.8491 73.8879 28.218 73.8879 25.1478V23.9942H73.7628C72.9635 24.9665 71.4236 25.8165 69.4804 25.8165C65.4147 25.8165 61.6895 22.323 61.6895 17.8276C61.6895 13.3002 65.4147 9.77722 69.4804 9.77722ZM34.6578 9.77722C39.153 9.77722 42.8153 13.1477 42.8153 17.7989C42.8153 22.4173 39.153 25.8205 34.6578 25.8205C30.1627 25.8205 26.5004 22.4166 26.5004 17.7989C26.5004 13.1477 30.1627 9.77722 34.6578 9.77722ZM52.2564 9.77722C56.7516 9.77722 60.4139 13.1477 60.4139 17.7989C60.4139 22.4173 56.7509 25.8205 52.2564 25.8205C47.7613 25.8205 44.099 22.4166 44.099 17.7989C44.099 13.1511 47.7613 9.77722 52.2564 9.77722ZM92.0397 9.77388C96.2599 9.77388 98.3235 13.0869 98.9985 14.8764L99.3684 15.7879L88.4978 20.2291C89.3306 21.8388 90.6243 22.6593 92.439 22.6593C94.2578 22.6593 95.5188 21.7766 96.4432 20.4391L99.2145 22.2614C98.3202 23.5675 96.1643 25.8165 92.439 25.8165C87.8195 25.8165 84.3699 22.2942 84.3699 17.7955C84.3699 13.0253 87.8489 9.77388 92.0397 9.77388ZM13.32 0.90625C17.1696 0.90625 19.9115 2.39622 21.9725 4.33827L19.5376 6.73909C18.0599 5.37283 16.0585 4.30952 13.3166 4.30952C8.2342 4.30952 4.26015 8.34877 4.26015 13.3617C4.26015 18.374 8.2342 22.4132 13.316 22.4132C16.6124 22.4132 18.4894 21.1078 19.6921 19.9215C20.6667 18.9598 21.3089 17.5855 21.5617 15.7084L13.316 15.7124V12.3084H24.9418C25.0555 12.9023 25.1144 13.6038 25.1144 14.3635C25.1144 16.9161 24.4067 20.074 22.1263 22.323C19.9082 24.6014 17.074 25.8172 13.3193 25.8172C6.36122 25.8172 0.509521 20.2264 0.509521 13.3617C0.509521 6.497 6.36189 0.90625 13.32 0.90625ZM82.8702 1.8211V25.329H79.3871V1.82244H82.8702V1.8211ZM34.6578 12.9384C32.1942 12.9384 30.0711 14.9132 30.0711 17.7989C30.0711 20.6558 32.1942 22.6593 34.6578 22.6593C37.1215 22.6593 39.2446 20.6524 39.2446 17.7989C39.2446 14.9132 37.1215 12.9384 34.6578 12.9384ZM52.2564 12.9384C49.7928 12.9384 47.6696 14.9132 47.6696 17.7989C47.6696 20.6558 49.7928 22.6593 52.2564 22.6593C54.72 22.6593 56.8425 20.6524 56.8425 17.7989C56.8425 14.9132 54.72 12.9384 52.2564 12.9384ZM69.7995 12.9384C67.3359 12.9384 65.2716 15.0035 65.2716 17.8276C65.2716 20.623 67.3359 22.6593 69.7995 22.6593C72.2303 22.6593 74.1408 20.6237 74.1408 17.8276C74.1408 15.0035 72.2303 12.9384 69.7995 12.9384ZM92.1608 12.8769C90.346 12.8769 87.8195 14.4571 87.9111 17.5528L95.1783 14.5768C94.7783 13.575 93.5762 12.8769 92.1608 12.8769Z" fill="#B3BCC0"/>
</svg>
