<svg width="61" height="34" viewBox="0 0 61 34" fill="none" xmlns="http://www.w3.org/2000/svg">
<path fill-rule="evenodd" clip-rule="evenodd" d="M39.1983 22.0533C40.4451 22.0533 41.3654 22.359 41.6148 22.4341V25.2813C41.5076 25.2257 40.6562 24.7148 39.3893 24.7148C37.6726 24.7148 36.4848 25.9202 36.4848 27.5446C36.4848 29.1208 37.623 30.3771 39.3886 30.3771C40.6341 30.3771 41.5002 29.8777 41.6141 29.814V32.6613C41.2857 32.7551 40.3814 33.0387 39.1983 33.0387C36.22 33.0387 33.6077 30.9631 33.6077 27.5446C33.6077 24.3763 35.974 22.0533 39.1983 22.0533ZM11.5418 22.0533C12.7886 22.0533 13.7083 22.359 13.9577 22.4341V25.2813C13.8511 25.2257 12.9991 24.7148 11.7322 24.7148C10.0161 24.7148 8.82831 25.9202 8.82831 27.5446C8.82831 29.1208 9.96586 30.3771 11.7322 30.3771C12.9777 30.3771 13.8437 29.8777 13.9577 29.814V32.6613C13.6292 32.7551 12.7243 33.0387 11.5418 33.0387C8.56286 33.0387 5.95059 30.9631 5.95059 27.5446C5.95059 24.3763 8.31752 22.0533 11.5418 22.0533ZM49.9497 22.0533C53.1793 22.0533 55.4987 24.515 55.4987 27.544C55.4987 30.5796 53.1793 33.0387 49.9497 33.0387C46.7207 33.0387 44.4047 30.5796 44.4047 27.5446C44.4047 24.5144 46.7207 22.0533 49.9497 22.0533ZM27.7162 22.0506C29.0059 22.0506 30.2192 22.367 30.2983 22.3878V24.6531C30.2587 24.6397 29.1433 24.3287 28.227 24.3287C27.1652 24.3287 26.588 24.6887 26.588 25.1982C26.588 25.8445 27.3669 26.0697 27.802 26.2092L28.5333 26.4438C30.2534 26.9969 31.037 28.1869 31.037 29.4788C31.037 32.1437 28.7177 33.0394 26.6892 33.0394C25.2802 33.0394 23.9603 32.7779 23.8303 32.7491V30.3081C24.0636 30.3671 25.1743 30.7023 26.332 30.7023C27.6505 30.7023 28.2558 30.3135 28.2558 29.7121C28.2558 29.1744 27.7316 28.864 27.0747 28.6555C26.9138 28.6012 26.6732 28.5248 26.5089 28.4705C25.0335 27.9992 23.8028 27.1229 23.8028 25.3665C23.8028 23.382 25.2735 22.0506 27.7162 22.0506ZM20.2501 22.2416V32.8503H17.6009V22.2416H20.2501ZM59.4214 31.4532V31.6194H58.9529V32.8496H58.7612V31.6194H58.2899V31.4532H59.4214ZM59.821 31.4532L60.2346 32.5989H60.2413L60.6421 31.4532H60.9371V32.8496H60.74V31.7052H60.7333L60.3137 32.8496H60.132L59.7217 31.7052H59.713V32.8496H59.52V31.4532H59.821ZM49.9504 24.7544C48.3778 24.7544 47.2107 26.0047 47.2107 27.5446C47.2107 29.0879 48.3784 30.3369 49.9504 30.3369C51.5203 30.3369 52.6913 29.0879 52.6913 27.5446C52.6913 26.0047 51.5209 24.7544 49.9504 24.7544ZM16.2763 0.859375C16.6064 0.860896 16.9239 0.985961 17.1663 1.20994C17.4087 1.43391 17.5585 1.74056 17.5862 2.06948L17.5915 2.18345V16.2723C17.5931 16.6228 17.4555 16.9597 17.2089 17.2089C16.9623 17.458 16.6269 17.5991 16.2763 17.601C15.9455 17.5996 15.6272 17.4741 15.3844 17.2493C15.1416 17.0244 14.992 16.7167 14.9652 16.3869L14.9598 16.2723V2.18412C14.9595 1.83394 15.0979 1.4979 15.3448 1.24959C15.5917 1.00129 15.9262 0.860971 16.2763 0.859375ZM45.1743 0.859375C45.5043 0.860896 45.8218 0.985961 46.0642 1.20994C46.3067 1.43391 46.4564 1.74056 46.4841 2.06948L46.4888 2.18345V16.2723C46.4904 16.6228 46.3528 16.9597 46.1061 17.2089C45.8595 17.458 45.5241 17.5991 45.1736 17.601C44.8427 17.5996 44.5244 17.4741 44.2817 17.2493C44.0389 17.0244 43.8893 16.7167 43.8624 16.3869L43.8577 16.2723V2.18412C43.8574 1.83406 43.9957 1.49811 44.2425 1.24983C44.4892 1.00154 44.8242 0.861148 45.1743 0.859375ZM1.82471 9.51647C2.15475 9.51781 2.47233 9.6427 2.71489 9.86655C2.95744 10.0904 3.10739 10.397 3.1352 10.7259L3.13989 10.8399V13.6248C3.1415 13.9754 3.00388 14.3122 2.75727 14.5614C2.51066 14.8105 2.17524 14.9516 1.82471 14.9535C1.494 14.952 1.17589 14.8265 0.933161 14.6018C0.690429 14.3772 0.540708 14.0697 0.513543 13.7401L0.509521 13.6241V10.8392C0.509521 10.1084 1.10142 9.51579 1.82538 9.51579L1.82471 9.51647ZM30.7266 9.51647C30.9921 9.51647 31.2394 9.59692 31.4466 9.73502L31.5324 9.79737C31.8119 10.0186 32.0009 10.3491 32.0331 10.7259L32.0378 10.8399V13.6248C32.0378 13.9734 31.9051 14.2898 31.6892 14.5265L31.6128 14.6022C31.373 14.828 31.056 14.9537 30.7266 14.9535H30.7226C30.3919 14.952 30.0738 14.8265 29.8311 14.6018C29.5883 14.3772 29.4386 14.0697 29.4115 13.7401L29.4068 13.6248V10.8399C29.4068 10.1091 29.9987 9.51647 30.7226 9.51647H30.7266ZM59.6246 9.51647C60.3076 9.51647 60.87 10.0481 60.9277 10.7259L60.9324 10.8399V13.6248C60.9324 14.3602 60.3452 14.9535 59.6246 14.9535C59.2939 14.9521 58.9758 14.8267 58.7331 14.602C58.4904 14.3773 58.3409 14.0697 58.3141 13.7401L58.3094 13.6248V10.8399C58.3087 10.4901 58.4467 10.1542 58.6933 9.90614C58.9399 9.65803 59.2748 9.51789 59.6246 9.51647ZM9.05086 5.85934C9.73728 5.85934 10.3037 6.39299 10.3614 7.07079L10.366 7.18476V13.6254C10.366 14.3602 9.77549 14.9529 9.05086 14.9529C8.72017 14.9516 8.40198 14.8263 8.1592 14.6018C7.91642 14.3772 7.76672 14.0697 7.7397 13.7401L7.735 13.6254V7.18476C7.735 6.454 8.32624 5.85934 9.05086 5.85934ZM23.5025 5.85934C24.1889 5.85934 24.7553 6.39299 24.813 7.07079L24.8177 7.18476V13.6254C24.8177 14.3602 24.2265 14.9529 23.5025 14.9529C23.1718 14.9516 22.8536 14.8263 22.6108 14.6018C22.3681 14.3772 22.2184 14.0697 22.1913 13.7401L22.1866 13.6254V7.18476C22.1866 6.454 22.7772 5.85934 23.5025 5.85934ZM37.9488 5.85934C38.6352 5.85934 39.2016 6.39299 39.2593 7.07079L39.264 7.18476V13.6254C39.264 14.3602 38.6734 14.9529 37.9488 14.9529C37.6181 14.9516 37.2999 14.8263 37.0571 14.6018C36.8143 14.3772 36.6646 14.0697 36.6376 13.7401L36.6329 13.6254V7.18476C36.6329 6.454 37.2235 5.85934 37.9488 5.85934ZM52.4004 5.85934C53.0862 5.85934 53.6526 6.39299 53.7102 7.07079L53.7156 7.18476V13.6254C53.7156 14.3602 53.1244 14.9529 52.4004 14.9529C52.0697 14.9516 51.7515 14.8263 51.5087 14.6018C51.266 14.3772 51.1163 14.0697 51.0892 13.7401L51.0845 13.6254V7.18476C51.0845 6.454 51.6751 5.85934 52.4004 5.85934Z" fill="#B3BCC0"/>
</svg>
